<svg width="125" height="36" viewBox="0 0 125 36" fill="none" xmlns="http://www.w3.org/2000/svg">
<path fill-rule="evenodd" clip-rule="evenodd" d="M27 22.9333V14.0667H12.7059V9H9.52941V11.5333H6.35294V14.0667H3.17647V16.6H5.96046e-07V20.4H3.17647V22.9333H6.35294V25.4667H9.52941V28H12.7059V22.9333H27Z" fill="#A78233"/>
<path d="M55 28H52.5V25.5V23H50H47.5H45V25.5V28H42.5H40V25.5V23V20.5V18V15.5V13V10.5H42.5H45V13V15.5V18H47.5H50H52.5V15.5V13V10.5H55H57.5V13V15.5V18V20.5V23V25.5V28H55ZM72.5 28H70H67.5H65H62.5V25.5H60V23V20.5V18V15.5V13H62.5V10.5H65H67.5H70H72.5H75V13H77.5V15.5V18V20.5V23V25.5H75V28H72.5ZM70 23H72.5V20.5V18V15.5H70H67.5H65V18V20.5V23H67.5H70ZM87.5 20.5V18H85V20.5V23V25.5V28H82.5H80V25.5V23V20.5V18V15.5V13V10.5H82.5H85V13H87.5V15.5H90V13H92.5V10.5H95H97.5V13V15.5V18V20.5V23V25.5V28H95H92.5V25.5V23V20.5V18H90V20.5H87.5ZM115 28H112.5H110H107.5H105H102.5H100V25.5V23V20.5V18V15.5V13V10.5H102.5H105H107.5H110H112.5H115H117.5V13V15.5H115H112.5H110H107.5H105V18H107.5H110H112.5V20.5H110H107.5H105V23H107.5H110H112.5H115H117.5V25.5V28H115Z" fill="#A78233"/>
</svg>
