<svg width="622" height="102" viewBox="0 0 622 102" fill="none" xmlns="http://www.w3.org/2000/svg">
<rect x="2" y="2" width="618" height="98" rx="3" fill="#A78233" fill-opacity="0.12" stroke="#A78233" stroke-width="4"/>
<path d="M246.1 67.85L251.45 51.95L238.55 43.3H254.35L260 26.25L265.75 43.3H281.45L268.55 51.95L274 67.85L260 57.7L246.1 67.85ZM294.698 69.4L300.548 52.1L286.548 42.8H303.598L309.848 24.2L316.098 42.8H333.148L319.148 52.1L324.898 69.4L309.848 58.3L294.698 69.4ZM300.198 61.85L309.848 54.55L319.498 61.85L315.548 50.95L324.348 45.25H313.798L309.848 33.2L305.848 45.25H295.248L304.148 50.95L300.198 61.85ZM346.407 69.4L352.257 52.1L338.257 42.8H355.307L361.557 24.2L367.807 42.8H384.857L370.857 52.1L376.607 69.4L361.557 58.3L346.407 69.4ZM351.907 61.85L361.557 54.55L371.207 61.85L367.257 50.95L376.057 45.25H365.507L361.557 33.2L357.557 45.25H346.957L355.857 50.95L351.907 61.85Z" fill="#A78233" fill-opacity="0.84"/>
</svg>
