<svg width="622" height="102" viewBox="0 0 622 102" fill="none" xmlns="http://www.w3.org/2000/svg">
<rect x="2" y="2" width="618" height="98" rx="3" fill="#A78233" fill-opacity="0.12" stroke="#A78233" stroke-width="4"/>
<path d="M246.1 67.85L251.45 51.95L238.55 43.3H254.35L260 26.25L265.75 43.3H281.45L268.55 51.95L274 67.85L260 57.7L246.1 67.85ZM294.098 67.85L299.448 51.95L286.548 43.3H302.348L307.998 26.25L313.748 43.3H329.448L316.548 51.95L321.998 67.85L307.998 57.7L294.098 67.85ZM342.696 69.4L348.546 52.1L334.546 42.8H351.596L357.846 24.2L364.096 42.8H381.146L367.146 52.1L372.896 69.4L357.846 58.3L342.696 69.4ZM348.196 61.85L357.846 54.55L367.496 61.85L363.546 50.95L372.346 45.25H361.796L357.846 33.2L353.846 45.25H343.246L352.146 50.95L348.196 61.85Z" fill="#A78233" fill-opacity="0.84"/>
</svg>
