<svg width="622" height="102" viewBox="0 0 622 102" fill="none" xmlns="http://www.w3.org/2000/svg">
<rect x="2" y="2" width="618" height="98" rx="3" fill="#A78233" fill-opacity="0.12" stroke="#A78233" stroke-width="4"/>
<path d="M246.1 67.85L251.45 51.95L238.55 43.3H254.35L260 26.25L265.75 43.3H281.45L268.55 51.95L274 67.85L260 57.7L246.1 67.85ZM294.098 67.85L299.448 51.95L286.548 43.3H302.348L307.998 26.25L313.748 43.3H329.448L316.548 51.95L321.998 67.85L307.998 57.7L294.098 67.85ZM342.096 67.85L347.446 51.95L334.546 43.3H350.346L355.996 26.25L361.746 43.3H377.446L364.546 51.95L369.996 67.85L355.996 57.7L342.096 67.85Z" fill="#A78233" fill-opacity="0.84"/>
</svg>
