<?xml version="1.0" standalone="no"?>
<!DOCTYPE svg PUBLIC "-//W3C//DTD SVG 20010904//EN"
 "http://www.w3.org/TR/2001/REC-SVG-20010904/DTD/svg10.dtd">
<svg version="1.0" xmlns="http://www.w3.org/2000/svg"
 width="626.000000pt" height="398.000000pt" viewBox="0 0 626.000000 398.000000"
 preserveAspectRatio="xMidYMid meet">

<g transform="translate(0.000000,398.000000) scale(0.100000,-0.100000)"
fill="#000000" stroke="none">
<path d="M5850 3459 c0 -4 7 -12 15 -19 16 -14 8 -37 -27 -74 -24 -27 -32 -58
-25 -103 8 -49 -11 -87 -83 -164 -49 -52 -62 -61 -82 -55 -12 4 -32 10 -43 13
-18 6 -18 5 -6 -10 11 -14 11 -17 0 -17 -8 -1 1 -7 20 -15 33 -15 86 -11 75 6
-3 5 0 9 6 9 6 0 8 5 4 12 -5 7 -2 9 8 5 9 -3 24 3 34 14 9 10 14 19 9 19 -4
0 -14 -8 -22 -17 -11 -14 -13 -14 -10 -3 2 8 15 21 30 28 34 17 67 59 60 78
-4 10 0 12 13 8 11 -4 25 -11 31 -17 9 -6 24 -4 47 7 19 9 42 16 51 16 9 0 30
14 47 31 25 25 29 33 17 40 -12 7 -12 9 0 9 8 0 19 7 26 16 9 14 16 14 33 5
18 -10 22 -9 22 3 0 9 -10 21 -22 27 -34 17 -137 93 -138 100 0 4 13 12 30 19
16 7 35 19 41 27 11 12 0 14 -74 11 -48 -1 -87 -5 -87 -9z m175 -149 c3 -5 -1
-20 -10 -33 -8 -13 -12 -27 -9 -30 11 -11 -17 -37 -40 -37 -11 0 -32 9 -46 20
-32 25 -47 25 -55 -1 -4 -11 -9 -18 -12 -16 -2 3 0 15 7 26 9 18 7 25 -14 45
l-26 23 25 23 c14 13 25 28 25 33 0 6 7 18 16 28 16 17 19 16 75 -27 32 -24
61 -49 64 -54z m-239 -188 c-17 -16 -18 -16 -5 5 7 12 15 20 18 17 3 -2 -3
-12 -13 -22z m-119 -108 c-3 -3 -12 -4 -19 -1 -8 3 -5 6 6 6 11 1 17 -2 13 -5z"/>
<path d="M5980 3235 c-8 -9 -8 -15 -2 -15 12 0 26 19 19 26 -2 2 -10 -2 -17
-11z"/>
<path d="M382 2584 c-16 -7 -102 -119 -102 -133 0 -22 21 -10 91 50 39 34 66
52 60 41 -6 -11 -36 -42 -66 -69 -52 -46 -71 -83 -42 -83 19 0 96 56 130 94
30 33 61 86 55 92 -7 7 -113 14 -126 8z"/>
<path d="M3116 1954 c-205 -44 -306 -175 -306 -395 0 -97 31 -396 72 -686 l32
-233 361 -3 360 -2 -372 -3 c-211 -1 -374 2 -377 7 -4 5 -23 5 -46 -1 -32 -8
-40 -14 -35 -27 4 -9 9 -30 12 -47 l5 -31 72 3 c39 2 250 5 469 7 219 3 402 8
407 13 4 5 11 23 15 41 6 30 5 31 -34 38 -24 4 -47 2 -58 -4 -15 -10 -14 -11
12 -9 22 2 31 -2 33 -16 3 -16 -1 -17 -40 -11 -23 5 -72 7 -108 6 -76 -3 -38
-3 -422 -2 -202 0 -308 4 -308 11 0 7 136 10 403 10 l402 0 1 38 c1 20 7 127
13 237 22 394 30 684 20 748 -25 156 -131 269 -296 312 -71 19 -196 18 -287
-1z m341 -42 c40 -16 87 -42 105 -57 82 -68 128 -186 128 -326 0 -140 -30
-760 -40 -814 -9 -52 -9 -51 10 410 22 504 11 582 -93 692 -48 50 -112 79
-220 100 -72 13 -89 13 -175 -1 -116 -20 -154 -37 -213 -98 -67 -68 -88 -119
-101 -240 -10 -101 -9 -113 22 -403 13 -122 49 -425 55 -465 4 -25 3 -31 -4
-19 -6 8 -19 94 -30 190 -11 96 -27 235 -35 309 -9 74 -18 146 -22 159 -11 51
-5 270 10 328 16 63 41 119 57 128 5 4 7 11 3 16 -3 5 0 8 8 7 7 -2 12 3 11 9
-2 7 0 12 5 10 4 -1 8 2 9 7 3 14 103 58 178 77 104 28 237 20 332 -19z m-90
-207 c39 -16 89 -68 115 -118 24 -47 45 -214 29 -230 -8 -8 -11 3 -11 39 -1
109 -38 218 -90 262 -32 27 -103 52 -148 52 -153 0 -230 -87 -240 -266 -3 -59
-8 -91 -15 -87 -14 9 -1 175 18 219 16 40 57 91 89 114 55 39 177 46 253 15z
m-137 -189 l0 -175 -95 1 c-93 0 -95 1 -101 25 -10 40 5 162 25 207 29 64 92
113 149 115 l22 1 0 -174z m126 158 c70 -33 116 -123 127 -247 8 -88 9 -87
-109 -87 l-104 0 0 44 c0 24 7 60 16 81 8 20 10 34 5 30 -8 -4 -11 27 -11 94
0 96 1 101 21 101 12 0 36 -7 55 -16z m-91 -156 c-3 -90 -8 -165 -11 -167 -5
-6 -7 38 -8 196 -1 104 2 133 12 133 11 0 12 -32 7 -162z m127 -195 c-73 -2
-190 -2 -260 0 -70 1 -10 3 133 3 143 0 200 -2 127 -3z m-392 -193 c-10 -19
-40 -28 -40 -12 0 13 23 32 37 32 11 0 11 -5 3 -20z"/>
<path d="M2392 1779 c-57 -11 -139 -56 -163 -90 -54 -76 -69 -209 -32 -289 21
-48 99 -121 147 -140 36 -13 102 -13 167 1 102 22 191 138 192 251 0 46 -6 70
-33 124 -58 114 -160 166 -278 143z m61 -294 c-3 -9 -8 -14 -10 -11 -3 3 -2 9
2 15 9 16 15 13 8 -4z m-133 -182 c0 -8 -38 17 -51 33 -9 11 -2 9 19 -6 17
-13 32 -25 32 -27z m255 17 c-3 -5 -12 -10 -18 -10 -7 0 -6 4 3 10 19 12 23
12 15 0z m-166 -46 c10 -9 -35 -3 -49 6 -11 8 -7 9 15 4 17 -4 32 -8 34 -10z"/>
<path d="M4024 1776 c-133 -33 -204 -128 -204 -273 0 -136 113 -253 245 -253
123 0 201 46 256 152 35 66 33 156 -5 231 -61 121 -169 173 -292 143z m-14
-120 c0 -2 -8 -10 -17 -17 -16 -13 -17 -12 -4 4 13 16 21 21 21 13z m67 -218
c-3 -8 -6 -5 -6 6 -1 11 2 17 5 13 3 -3 4 -12 1 -19z m-152 -100 c22 -23 30
-35 18 -27 -20 14 -69 69 -61 69 2 0 21 -19 43 -42z m320 2 c-10 -11 -22 -20
-28 -20 -5 0 1 9 14 20 31 25 37 25 14 0z m-225 -55 c19 -7 28 -14 20 -14 -8
0 -28 6 -45 14 -39 17 -21 18 25 0z"/>
<path d="M2736 517 c-24 -8 -24 -10 -12 -50 l12 -42 409 -2 c226 -2 475 0 554
5 l144 7 13 37 c10 29 10 39 1 45 -16 11 -1090 10 -1121 0z m1068 -22 c-15
-10 -40 -13 -90 -9 -38 2 -97 1 -132 -4 -34 -5 -65 -5 -68 -1 -7 12 -567 6
-576 -6 -5 -6 -11 -5 -16 3 -6 9 -21 11 -50 6 -45 -7 -92 1 -92 16 0 6 188 10
522 10 460 0 520 -2 502 -15z"/>
</g>
</svg>
