<svg width="239" height="80" viewBox="0 0 239 80" fill="none" xmlns="http://www.w3.org/2000/svg">
<rect x="2" y="2" width="235" height="76" rx="3" fill="#A78233" fill-opacity="0.12" stroke="#A78233" stroke-width="4"/>
<path fill-rule="evenodd" clip-rule="evenodd" d="M154 29.5333V51.4667H181.209V64H187.255V57.7333H193.301V51.4667H199.348V45.2H205.394V35.8H199.348V29.5333H193.301V23.2667H187.255V17H181.209V29.5333H154Z" fill="#A78233"/>
<path d="M41.125 52H38V48.875V45.75V42.625V39.5V36.375V33.25V30.125H41.125H44.25H47.375H50.5H53.625H56.75V33.25H59.875V36.375V39.5V42.625H56.75V45.75H53.625H50.5H47.375H44.25V48.875V52H41.125ZM50.5 39.5H53.625V36.375H50.5H47.375H44.25V39.5H47.375H50.5ZM81.75 52H78.625H75.5H72.375H69.25H66.125H63V48.875V45.75V42.625V39.5V36.375V33.25V30.125H66.125H69.25V33.25V36.375V39.5V42.625V45.75H72.375H75.5H78.625H81.75H84.875V48.875V52H81.75ZM106.75 52H103.625V48.875V45.75H100.5H97.375H94.25V48.875V52H91.125H88V48.875V45.75V42.625V39.5V36.375V33.25H91.125V30.125H94.25H97.375H100.5H103.625H106.75V33.25H109.875V36.375V39.5V42.625V45.75V48.875V52H106.75ZM100.5 39.5H103.625V36.375H100.5H97.375H94.25V39.5H97.375H100.5ZM122.375 52H119.25V48.875V45.75V42.625H116.125V39.5H113V36.375V33.25V30.125H116.125H119.25V33.25V36.375H122.375H125.5V33.25V30.125H128.625H131.75V33.25V36.375V39.5H128.625V42.625H125.5V45.75V48.875V52H122.375Z" fill="#A78233" fill-opacity="0.84"/>
</svg>
