<svg width="365" height="142" viewBox="0 0 365 142" fill="none" xmlns="http://www.w3.org/2000/svg">
<rect x="2" y="2" width="361" height="138" rx="3" fill="#A57A1E" fill-opacity="0.11" stroke="#A57A1E" stroke-width="4"/>
<path d="M134 78H131.5V75.5V73H129H126.5H124V75.5V78H121.5H119V75.5V73V70.5V68V65.5V63V60.5H121.5H124H126.5H129H131.5H134V63H136.5V65.5V68V70.5H134V73H136.5V75.5V78H134ZM129 68H131.5V65.5H129H126.5H124V68H126.5H129ZM154 78H151.5V75.5V73H149H146.5H144V75.5V78H141.5H139V75.5V73V70.5V68V65.5V63H141.5V60.5H144H146.5H149H151.5H154V63H156.5V65.5V68V70.5V73V75.5V78H154ZM149 68H151.5V65.5H149H146.5H144V68H146.5H149ZM174 78H171.5V75.5V73H169V70.5H166.5V68H164V70.5V73V75.5V78H161.5H159V75.5V73V70.5V68V65.5V63V60.5H161.5H164V63H166.5V65.5H169V68H171.5V65.5V63V60.5H174H176.5V63V65.5V68V70.5V73V75.5V78H174ZM194 78H191.5H189V75.5H186.5V73H184V75.5V78H181.5H179V75.5V73V70.5V68V65.5V63V60.5H181.5H184V63V65.5H186.5V63H189V60.5H191.5H194H196.5V63H194V65.5H191.5V68H189V70.5H191.5V73H194V75.5H196.5V78H194ZM201.5 78H199V75.5V73V70.5V68V65.5V63V60.5H201.5H204V63V65.5V68V70.5V73V75.5V78H201.5ZM221.5 78H219V75.5V73H216.5V70.5H214V68H211.5V70.5V73V75.5V78H209H206.5V75.5V73V70.5V68V65.5V63V60.5H209H211.5V63H214V65.5H216.5V68H219V65.5V63V60.5H221.5H224V63V65.5V68V70.5V73V75.5V78H221.5ZM241.5 78H239H236.5H234H231.5H229V75.5H226.5V73V70.5V68V65.5V63H229V60.5H231.5H234H236.5H239H241.5H244V63V65.5H241.5H239H236.5H234H231.5V68V70.5V73H234H236.5H239V70.5H236.5H234V68H236.5H239H241.5H244V70.5V73V75.5V78H241.5Z" fill="#A57A1E"/>
</svg>
