<svg width="319" height="80" viewBox="0 0 319 80" fill="none" xmlns="http://www.w3.org/2000/svg">
<rect x="2" y="2" width="315" height="76" rx="3" fill="#A78233" fill-opacity="0.12" stroke="#A78233" stroke-width="4"/>
<path fill-rule="evenodd" clip-rule="evenodd" d="M234 29.5333V51.4667H261.209V64H267.255V57.7333H273.301V51.4667H279.348V45.2H285.394V35.8H279.348V29.5333H273.301V23.2667H267.255V17H261.209V29.5333H234Z" fill="#A78233"/>
<path d="M56.75 52H53.625V48.875V45.75H50.5H47.375H44.25V48.875V52H41.125H38V48.875V45.75V42.625V39.5V36.375V33.25V30.125H41.125H44.25H47.375H50.5H53.625H56.75V33.25H59.875V36.375V39.5V42.625H56.75V45.75H59.875V48.875V52H56.75ZM50.5 39.5H53.625V36.375H50.5H47.375H44.25V39.5H47.375H50.5ZM81.75 52H78.625H75.5H72.375H69.25H66.125H63V48.875V45.75V42.625V39.5V36.375V33.25V30.125H66.125H69.25H72.375H75.5H78.625H81.75H84.875V33.25V36.375H81.75H78.625H75.5H72.375H69.25V39.5H72.375H75.5H78.625V42.625H75.5H72.375H69.25V45.75H72.375H75.5H78.625H81.75H84.875V48.875V52H81.75ZM106.75 52H103.625H100.5H97.375H94.25H91.125V48.875H88V45.75V42.625V39.5V36.375V33.25H91.125V30.125H94.25H97.375H100.5H103.625H106.75H109.875V33.25V36.375H106.75H103.625H100.5H97.375H94.25V39.5V42.625V45.75H97.375H100.5H103.625V42.625H100.5H97.375V39.5H100.5H103.625H106.75H109.875V42.625V45.75V48.875V52H106.75ZM116.125 52H113V48.875V45.75V42.625V39.5V36.375V33.25V30.125H116.125H119.25V33.25V36.375V39.5V42.625V45.75V48.875V52H116.125ZM138 52H134.875H131.75H128.625H125.5H122.375V48.875V45.75H125.5H128.625H131.75H134.875H138V42.625H134.875H131.75H128.625H125.5H122.375V39.5V36.375V33.25H125.5V30.125H128.625H131.75H134.875H138H141.125H144.25V33.25V36.375H141.125H138H134.875H131.75H128.625V39.5H131.75H134.875H138H141.125H144.25V42.625V45.75V48.875H141.125V52H138ZM156.75 52H153.625V48.875V45.75V42.625V39.5V36.375H150.5H147.375V33.25V30.125H150.5H153.625H156.75H159.875H163H166.125V33.25V36.375H163H159.875V39.5V42.625V45.75V48.875V52H156.75ZM188 52H184.875H181.75H178.625H175.5H172.375H169.25V48.875V45.75V42.625V39.5V36.375V33.25V30.125H172.375H175.5H178.625H181.75H184.875H188H191.125V33.25V36.375H188H184.875H181.75H178.625H175.5V39.5H178.625H181.75H184.875V42.625H181.75H178.625H175.5V45.75H178.625H181.75H184.875H188H191.125V48.875V52H188ZM213 52H209.875V48.875V45.75H206.75H203.625H200.5V48.875V52H197.375H194.25V48.875V45.75V42.625V39.5V36.375V33.25V30.125H197.375H200.5H203.625H206.75H209.875H213V33.25H216.125V36.375V39.5V42.625H213V45.75H216.125V48.875V52H213ZM206.75 39.5H209.875V36.375H206.75H203.625H200.5V39.5H203.625H206.75Z" fill="#A78233" fill-opacity="0.84"/>
</svg>
