<svg id="Layer_1" enable-background="new 0 0 128 128" viewBox="0 0 128 128" xmlns="http://www.w3.org/2000/svg" width="300" height="300" version="1.1" xmlns:xlink="http://www.w3.org/1999/xlink" xmlns:svgjs="http://svgjs.dev/svgjs"><g width="100%" height="100%" transform="matrix(1,0,0,1,0,0)"><g><path d="m93.2519989 32.8876991c.1698914 14.1903992-8.82621 26.6777-21.2901077 31.2216988 11.1923981 1.3153992 22.8359985-4.5810966 28.3827972-15.357399 4.3282013-8.4062996 5.0967026-17.7851982 2.1621017-26.4081993-2.1172028-6.2206993-6.0057907-11.4892998-11.1893997-15.2852001-.017601-.0117002-.0332031-.0243998-.0507965-.0351-1.6405945-1.1982999-3.4072037-2.25-5.2930069-3.1348-3.594696-1.6864996-7.4149932-2.8349995-11.3426971-3.4452995 2.4316025 1.3867 4.7207031 3.0654001 6.8172989 5.0351 7.4873047 7.0351995 11.6797027 16.7696003 11.8038101 27.4091991z" fill="#ca9c38" fill-opacity="1" data-original-color="#000000ff" stroke="none" stroke-opacity="1"/><path d="m78.1513901 23.2334003c5.6631012 12.3642979 2.9990005 26.7334003-5.6397018 36.0391006 9.7598037-4.4834003 16.6104049-14.7548999 16.4717025-26.3350009-.1112976-9.4668007-3.8252029-18.1133003-10.4589996-24.3466988-6.3027039-5.9218013-14.5488014-8.9375012-23.216301-8.4961012-2.5028992.1289-4.9892998.5049-7.4330902 1.083 2.824192.2735 5.6371918.8789999 8.3895912 1.8369999 9.6874962 3.375 17.4610024 10.5556002 21.8867989 20.2187004z" fill="#ca9c38" fill-opacity="1" data-original-color="#000000ff" stroke="none" stroke-opacity="1"/><path d="m122.6483917 76.0263977c-6.193306 8.1621017-15.385704 13.3358994-25.8867035 14.5693054-1.277298.1503983-2.5497971.2235947-3.8096008.2235947-12.5995941.0009995-24.0799942-7.3172989-29.3641968-18.1795959-.1259995 11.3055954 6.9355011 22.2967987 18.1913986 26.702095 8.7577972 3.4287033 18.1122971 3.2236023 26.3388977-.577095 5.9687042-2.7588043 10.8037033-7.1954041 14.0351028-12.7793045.0147095-.0292969.032196-.056694.0478973-.0859985 1.008812-1.7548981 1.8652039-3.6201019 2.5419998-5.5848999 1.2938995-3.7577972 2.0332031-7.6836014 2.2285004-11.6592026-1.1308974 2.5869064-2.5712966 5.060501-4.3232955 7.3711013z" fill="#ca9c38" fill-opacity="1" data-original-color="#000000ff" stroke="none" stroke-opacity="1"/><path d="m20.0023918 64.8262024c9.7066078-10.3242035 24.8213005-13.0420036 36.9340973-7.6328011-7.1420975-8.7471008-19.5995979-12.6161995-31.0482979-8.7324028-8.9091911 3.0214005-15.9452991 9.2138024-19.8105988 17.4335022-2.8075924 5.9698029-3.6659999 12.4922028-2.5595 18.8583985.0029075.0118027.0039077.024498.0072999.0372009.352 2.009697.8945 4.0038986 1.6406076 5.9598999 1.4154925 3.7157974 3.3637919 7.2012024 5.7616925 10.3731003-.7884998-2.7002029-1.2719002-5.5108032-1.4131002-8.3974991-.5018997-10.2637024 3.2227001-20.1708984 10.4877996-27.8993988z" fill="#ca9c38" fill-opacity="1" data-original-color="#000000ff" stroke="none" stroke-opacity="1"/><path d="m105.4081879 71.5733032c-5.6836014 3.9452972-12.2558975 5.8475952-18.743187 5.8475952-6.7861099 0-13.4746094-2.0858994-18.9599075-6.0820007 5.1747971 10.0469055 16.5615005 16.4326019 28.559494 15.0137024 9.3360062-1.0958023 17.4981003-5.6807022 22.9834137-12.9083023 3.9863892-5.2557983 6.1796875-11.4618988 6.4169998-17.9256973 0-.0136986.0009995-.027401.0009995-.0419998.0712891-2.0371017-.0459137-4.097702-.3691101-6.1651001-.6143036-3.9248009-1.7978897-7.7363014-3.4864044-11.3388023.2120056 2.8076019.1016006 5.6621017-.3612976 8.5175018-1.6416016 10.1357994-7.3378983 19.0440025-16.0410004 25.0831031z" fill="#ca9c38" fill-opacity="1" data-original-color="#000000ff" stroke="none" stroke-opacity="1"/><path d="m104.1405869 50.7089996c-5.7850952 11.2334023-17.3563995 17.8525009-29.0995865 17.8525009-1.4424133 0-2.8867111-.1102982-4.3232117-.3153992 9.2695007 6.4433975 22.3153992 6.7236023 32.2567978-.1826019 7.7432022-5.3721008 12.8057022-13.2753983 14.2608032-22.2559013 1.0526962-6.5038986.0868988-13-2.7208023-18.8065987-.013588-.0233994-.0233994-.0478992-.0360947-.0723-.8877029-1.8241997-1.9531021-3.5819988-3.2012024-5.2489986-2.3817978-3.1797009-5.2127991-5.990201-8.3906021-8.3760004 1.4981003 2.3701 2.732399 4.9345999 3.6612015 7.6620989 3.3125 9.7343998 2.4570007 20.2968998-2.4073028 29.7432003z" fill="#ca9c38" fill-opacity="1" data-original-color="#000000ff" stroke="none" stroke-opacity="1"/><path d="m57.4501915 20.8661995c11.2450981 8.6026001 15.5175972 23.3936005 11.4228096 36.0401001 7.9169998-8.0419998 10.4453888-20.875 5.3974915-31.8925991-3.9374924-8.5957012-10.8310013-14.9756003-19.4092026-17.9649005-8.1605988-2.8427-16.9208984-2.2363-24.6630974 1.7079997-3.5405006 1.8028002-6.7954006 4.1153002-9.6948013 6.8458004 2.6011009-1.0704002 5.3446999-1.8497 8.1991997-2.2911005 10.1240997-1.5643997 20.3296012 1.1172008 28.7476005 7.5546999z" fill="#ca9c38" fill-opacity="1" data-original-color="#000000ff" stroke="none" stroke-opacity="1"/><path d="m9.1660004 35.3740005c8.1967907-6.1366997 18.4555912-8.5634003 28.8905907-6.8525009 13.9541016 2.2987995 24.649498 13.3418007 26.9560966 26.4336014 3.222702-10.8291016-.5478973-23.3457012-10.1557961-30.6943016-7.4858017-5.7255993-16.5419998-8.1142998-25.5004997-6.7285995-6.4925995 1.0069008-12.3535004 3.9395008-16.9892006 8.4130993-.0088005.0098-.0176001.0157013-.0264006.0264015-1.4628992 1.4140987-2.8065996 2.9813995-4.0057917 4.6924-2.2793078 3.2567978-4.0704079 6.830101-5.3516073 10.6025009 1.7988005-2.1748009 3.8623005-4.1571999 6.1826087-5.8926011z" fill="#ca9c38" fill-opacity="1" data-original-color="#000000ff" stroke="none" stroke-opacity="1"/><path d="m39.9130898 100.1317978c-3.1064987-13.8456955 3.1055031-27.9393997 14.3589096-34.9842987-11.2246094 1.044899-21.3897095 9.25-24.5855083 20.9492035-2.4926987 9.1298981-1.2972984 18.4677963 3.3657017 26.2919998 3.3579979 5.6356964 8.2495995 9.9725952 14.1000977 12.6035004.0312996.0106964.0601006.027298.0909004.0391006 1.8442001.822197 3.7807007 1.4785004 5.7973022 1.9501953 3.8775063.902298 7.8632965 1.228508 11.8422966 1-2.6757889-.8516006-5.2763977-2.0087967-7.7450981-3.5029984-8.7798005-5.3212966-14.8969995-13.9667968-17.2246018-24.3467025z" fill="#ca9c38" fill-opacity="1" data-original-color="#000000ff" stroke="none" stroke-opacity="1"/><path d="m25.5683918 84.9707031c3.7392006-13.6914063 15.8183002-23.2031021 29.051199-24.1289024-10.3998985-4.3613014-23.2137985-1.9111023-31.5077991 6.9110985-6.4633999 6.8769989-9.777792 15.6708984-9.3329992 24.7637024.3212996 6.5761948 2.6142988 12.7266006 6.5614996 17.8153992.0088005.0097961.0157089.0214996.0240002.0302963 1.2514 1.6094055 2.6639996 3.115303 4.2381992 4.4922028 2.9908009 2.6152039 6.3457012 4.7753983 9.9497013 6.4473038-1.9545021-2.0078049-3.6938019-4.2539063-5.1669006-6.7246017-5.2627012-8.8339998-6.617201-19.3467027-3.8169004-29.6064989z" fill="#ca9c38" fill-opacity="1" data-original-color="#000000ff" stroke="none" stroke-opacity="1"/><path d="m24.5180912 44.4160004c13.3979092-4.5438996 28.0122013.1699981 36.176199 10.6464996-2.2196999-11.0830002-11.4076996-20.3623009-23.3309975-22.3241997-9.277401-1.5272999-18.3819008.6230011-25.6397018 6.0556984-5.2753997 3.9482002-9.0873995 9.305603-11.0887995 15.4531021-.0005.0018997-.001.0038986-.001.0038986-.6347914 1.9473-1.0907914 3.9725991-1.3500989 6.0615006-.4878 3.9452972-.3983999 7.9365005.2344 11.8682022.5698-2.7637024 1.4624-5.482399 2.6963-8.1035004 4.3641998-9.2803001 12.2846071-16.2637023 22.3036987-19.6612014z" fill="#ca9c38" fill-opacity="1" data-original-color="#000000ff" stroke="none" stroke-opacity="1"/><path d="m86.2382889 120.1493988c-10.2294998-.572197-19.6641006-5.3251953-26.5653992-13.3817978-9.2207985-10.7608032-10.3330994-26.1231003-3.7006989-37.6416016-9.4131012 6.2138977-14.5473976 18.2402039-11.8936005 30.0723038 2.0703011 9.2333984 7.4942017 16.9149933 15.2705002 21.6259003 5.6040039 3.3945999 11.9516983 4.9218979 18.3520966 4.4853973.0273056-.0038986.0547028-.0019989.0830002-.0069046 2.0156021-.1405945 4.0361023-.4735947 6.0381012-1.009697 3.8339996-1.0243988 7.4951019-2.6054993 10.8935013-4.6708984-2.1035004.384697-4.2538986.5848999-6.4326019.5848999-.6796952 0-1.3602982-.0185012-2.044899-.0576019z" fill="#ca9c38" fill-opacity="1" data-original-color="#000000ff" stroke="none" stroke-opacity="1"/><path d="m94.4267883 106.0478973c-4.7529984 0-9.5537872-.9072952-14.2021942-2.7276001-13.1728058-5.1561966-21.3437042-18.1875-20.8852043-31.4775009-5.3974991 9.9209061-4.3022995 22.9502029 3.5746994 32.1435013 6.1376991 7.1669998 14.5048027 11.3916016 23.5625038 11.9004059 6.5615005.3613968 12.8905945-1.2822037 18.344696-4.6865005.01371-.0088043.027298-.0166016.0410004-.0254059 1.7217102-1.0800934 3.357399-2.3290939 4.8837967-3.7518997 2.9043045-2.7109985 5.3964996-5.8320999 7.4316025-9.2558975-2.2108994 1.7528992-4.6406021 3.2617035-7.2685013 4.4766006-4.9081878 2.2666015-10.1641006 3.4042968-15.482399 3.4042968z" fill="#ca9c38" fill-opacity="1" data-original-color="#000000ff" stroke="none" stroke-opacity="1"/></g></g></svg>