<svg height="300" viewBox="0 0 512 512" width="300" xmlns="http://www.w3.org/2000/svg" version="1.1" xmlns:xlink="http://www.w3.org/1999/xlink" xmlns:svgjs="http://svgjs.dev/svgjs"><g width="100%" height="100%" transform="matrix(1,0,0,1,0,0)"><path d="m281.015625 241.230469h230.117187c-3.550781-62.824219-29.691406-121.394531-74.546874-166.25-12.75-12.75-26.617188-23.972657-41.363282-33.609375zm0 0" fill="#ca9c38" fill-opacity="1" data-original-color="#000000ff" stroke="none" stroke-opacity="1"/><path d="m255.566406 226.230469 114.035156-199.5625c-34.988281-17.4375-73.800781-26.667969-114.035156-26.667969s-79.046875 9.230469-114.035156 26.667969zm0 0" fill="#ca9c38" fill-opacity="1" data-original-color="#000000ff" stroke="none" stroke-opacity="1"/><path d="m230.117188 241.230469-114.207032-199.859375c-14.746094 9.636718-28.613281 20.859375-41.363281 33.609375-44.851563 44.855469-70.996094 103.425781-74.546875 166.25zm0 0" fill="#ca9c38" fill-opacity="1" data-original-color="#000000ff" stroke="none" stroke-opacity="1"/><path d="m281.015625 270.769531 114.207031 199.859375c14.746094-9.636718 28.613282-20.859375 41.363282-33.609375 44.855468-44.855469 70.996093-103.425781 74.546874-166.25zm0 0" fill="#ca9c38" fill-opacity="1" data-original-color="#000000ff" stroke="none" stroke-opacity="1"/><path d="m255.566406 285.769531-114.035156 199.5625c34.988281 17.4375 73.800781 26.667969 114.035156 26.667969s79.046875-9.230469 114.035156-26.667969zm0 0" fill="#ca9c38" fill-opacity="1" data-original-color="#000000ff" stroke="none" stroke-opacity="1"/><path d="m230.117188 270.769531h-230.117188c3.550781 62.824219 29.695312 121.394531 74.546875 166.25 12.75 12.75 26.617187 23.972657 41.363281 33.609375zm0 0" fill="#ca9c38" fill-opacity="1" data-original-color="#000000ff" stroke="none" stroke-opacity="1"/></g></svg>