<svg width="206" height="36" viewBox="0 0 206 36" fill="none" xmlns="http://www.w3.org/2000/svg">
<path fill-rule="evenodd" clip-rule="evenodd" d="M33.1211 29.8667V19.1333H15.6665V13H11.7878V16.0667H7.90897V19.1333H4.03019V22.2H0.151398V26.8H4.03019V29.8667H7.90897V32.9333H11.7878V36H15.6665V29.8667H33.1211Z" fill="#A78233" fill-opacity="0.84"/>
<path d="M80 34H77H74H71H68H65H62V31V28V25V22V19V16V13H65H68V16V19V22V25V28H71H74H77H80H83V31V34H80ZM101 34H98H95H92H89V31H86V28V25V22V19V16H89V13H92H95H98H101H104V16H107V19V22V25V28V31H104V34H101ZM98 28H101V25V22V19H98H95H92V22V25V28H95H98ZM128 34H125H122H119H116H113V31H110V28V25V22V19V16H113V13H116H119H122H125H128H131V16V19H128H125H122H119H116V22V25V28H119H122H125V25H122H119V22H122H125H128H131V25V28V31V34H128ZM152 34H149V31V28V25V22V19V16V13H152H155V16V19V22V25V28V31V34H152ZM176 34H173V31V28H170V25H167V22H164V25V28V31V34H161H158V31V28V25V22V19V16V13H161H164V16H167V19H170V22H173V19V16V13H176H179V16V19V22V25V28V31V34H176Z" fill="#A78233" fill-opacity="0.84"/>
</svg>
