<svg width="206" height="36" viewBox="0 0 206 36" fill="none" xmlns="http://www.w3.org/2000/svg">
<path fill-rule="evenodd" clip-rule="evenodd" d="M33.1211 29.8667V19.1333H15.6665V13H11.7878V16.0667H7.90897V19.1333H4.03019V22.2H0.151398V26.8H4.03019V29.8667H7.90897V32.9333H11.7878V36H15.6665V29.8667H33.1211Z" fill="#A78233" fill-opacity="0.84"/>
<path d="M77 34H74H71H68H65H62V31V28H65H68H71H74H77V25H74H71H68H65H62V22V19V16H65V13H68H71H74H77H80H83V16V19H80H77H74H71H68V22H71H74H77H80H83V25V28V31H80V34H77ZM89 34H86V31V28V25V22V19V16V13H89H92V16V19V22V25V28V31V34H89ZM113 34H110H107H104H101H98V31H95V28V25V22V19V16H98V13H101H104H107H110H113H116V16V19H113H110H107H104H101V22V25V28H104H107H110V25H107H104V22H107H110H113H116V25V28V31V34H113ZM137 34H134V31V28H131V25H128V22H125V25V28V31V34H122H119V31V28V25V22V19V16V13H122H125V16H128V19H131V22H134V19V16V13H137H140V16V19V22V25V28V31V34H137ZM173 34H170H167H164H161V31H158V28V25V22V19V16V13H161H164V16V19V22V25V28H167H170H173V25V22V19V16V13H176H179V16V19V22V25V28V31H176V34H173ZM185 34H182V31V28V25V22V19V16V13H185H188H191H194H197H200V16H203V19V22V25H200V28H197H194H191H188V31V34H185ZM194 22H197V19H194H191H188V22H191H194Z" fill="#A78233" fill-opacity="0.84"/>
</svg>
